<svg id="SvgjsSvg1006" width="1081" height="551" xmlns="http://www.w3.org/2000/svg" version="1.1" xmlns:xlink="http://www.w3.org/1999/xlink" xmlns:svgjs="http://svgjs.com/svgjs"><defs id="SvgjsDefs1007"><pattern patternUnits="userSpaceOnUse" id="pattern_mark_0" width="300" height="300"><text x="150" y="100" fill="rgba(229,229,229,0.8)" font-size="18" transform="rotate(-45, 150, 150)" style="dominant-baseline: middle; text-anchor: middle;"></text></pattern><pattern patternUnits="userSpaceOnUse" id="pattern_mark_1" width="300" height="300"><text x="150" y="200" fill="rgba(229,229,229,0.8)" font-size="18" transform="rotate(-45, 150, 150)" style="dominant-baseline: middle; text-anchor: middle;"></text></pattern></defs><rect id="svgbackgroundid" width="1081" height="551" fill="transparent"></rect><rect id="SvgjsRect1009" width="1081" height="551" fill="url(#pattern_mark_0)"></rect><rect id="SvgjsRect1010" width="1081" height="551" fill="url(#pattern_mark_1)"></rect><g id="SvgjsG1011" transform="translate(136,85)"><path id="SvgjsPath1012" d="M 0 0L 436 0L 436 441L 0 441Z" stroke="rgba(33,41,48,1)" stroke-width="1.5" fill-opacity="1" fill="#fadded"></path><g id="SvgjsG1013"><text id="SvgjsText1014" font-family="微软雅黑" text-anchor="middle" font-size="13px" width="416px" fill="#323232" font-weight="400" align="middle" lineHeight="125%" anchor="middle" family="微软雅黑" size="13px" weight="400" font-style="" opacity="1" y="209.875" transform="rotate(0)"></text></g></g><g id="SvgjsG1015" transform="translate(310,454)"><path id="SvgjsPath1016" d="M 0 0L 96 0L 96 54L 0 54Z" stroke="rgba(33,41,48,1)" stroke-width="1.5" fill-opacity="1" fill="#ffffff"></path><g id="SvgjsG1017"><text id="SvgjsText1018" font-family="微软雅黑" text-anchor="middle" font-size="13px" width="76px" fill="#323232" font-weight="400" align="middle" lineHeight="125%" anchor="middle" family="微软雅黑" size="13px" weight="400" font-style="" opacity="1" y="16.375" transform="rotate(0)"><tspan id="SvgjsTspan1019" dy="16.25" x="48"><tspan id="SvgjsTspan1020" style="">汇编</tspan></tspan></text></g></g><g id="SvgjsG1021"><path id="SvgjsPath1022" d="M137 428L596.5 428L596.5 428L1056 428" stroke="#323232" stroke-width="1.5" fill="none"></path></g><g id="SvgjsG1023" transform="translate(25,468)"><path id="SvgjsPath1024" d="M 0 0L 100 0L 100 40L 0 40Z" stroke="none" fill="none"></path><g id="SvgjsG1025"><text id="SvgjsText1026" font-family="微软雅黑" text-anchor="middle" font-size="13px" width="100px" fill="#323232" font-weight="400" align="middle" lineHeight="125%" anchor="middle" family="微软雅黑" size="13px" weight="400" font-style="" opacity="1" y="9.375" transform="rotate(0)"><tspan id="SvgjsTspan1027" dy="16.25" x="50"><tspan id="SvgjsTspan1028" style="">物理层</tspan></tspan></text></g></g><g id="SvgjsG1029" transform="translate(160,353.5)"><path id="SvgjsPath1030" d="M 0 0L 96 0L 96 54L 0 54Z" stroke="rgba(33,41,48,1)" stroke-width="1.5" fill-opacity="1" fill="#ffffff"></path><g id="SvgjsG1031"><text id="SvgjsText1032" font-family="微软雅黑" text-anchor="middle" font-size="13px" width="76px" fill="#323232" font-weight="400" align="middle" lineHeight="125%" anchor="middle" family="微软雅黑" size="13px" weight="400" font-style="" opacity="1" y="16.375" transform="rotate(0)"><tspan id="SvgjsTspan1033" dy="16.25" x="48"><tspan id="SvgjsTspan1034" style="">c</tspan></tspan></text></g></g><g id="SvgjsG1035"><path id="SvgjsPath1036" d="M137 299L596.5 299L596.5 299L1056 299" stroke="#323232" stroke-width="1.5" fill="none"></path></g><g id="SvgjsG1037" transform="translate(25,333)"><path id="SvgjsPath1038" d="M 0 0L 100 0L 100 40L 0 40Z" stroke="none" fill="none"></path><g id="SvgjsG1039"><text id="SvgjsText1040" font-family="微软雅黑" text-anchor="middle" font-size="13px" width="100px" fill="#323232" font-weight="400" align="middle" lineHeight="125%" anchor="middle" family="微软雅黑" size="13px" weight="400" font-style="" opacity="1" y="9.375" transform="rotate(0)"><tspan id="SvgjsTspan1041" dy="16.25" x="50"><tspan id="SvgjsTspan1042" style="">系统级编程</tspan></tspan></text></g></g><g id="SvgjsG1043" transform="translate(310,345)"><path id="SvgjsPath1044" d="M 0 0L 96 0L 96 54L 0 54Z" stroke="rgba(33,41,48,1)" stroke-width="1.5" fill-opacity="1" fill="#dbf5f5"></path><g id="SvgjsG1045"><text id="SvgjsText1046" font-family="微软雅黑" text-anchor="middle" font-size="13px" width="76px" fill="#323232" font-weight="400" align="middle" lineHeight="125%" anchor="middle" family="微软雅黑" size="13px" weight="400" font-style="" opacity="1" y="16.375" transform="rotate(0)"><tspan id="SvgjsTspan1047" dy="16.25" x="48"><tspan id="SvgjsTspan1048" style="">rust</tspan></tspan></text></g></g><g id="SvgjsG1049" transform="translate(160,254)"><path id="SvgjsPath1050" d="M 0 0L 96 0L 96 54L 0 54Z" stroke="rgba(33,41,48,1)" stroke-width="1.5" fill-opacity="1" fill="#ffffff"></path><g id="SvgjsG1051"><text id="SvgjsText1052" font-family="微软雅黑" text-anchor="middle" font-size="13px" width="76px" fill="#323232" font-weight="400" align="middle" lineHeight="125%" anchor="middle" family="微软雅黑" size="13px" weight="400" font-style="" opacity="1" y="16.375" transform="rotate(0)"><tspan id="SvgjsTspan1053" dy="16.25" x="48"><tspan id="SvgjsTspan1054" style="">go</tspan></tspan></text></g></g><g id="SvgjsG1055"><path id="SvgjsPath1056" d="M136 193L594.5 193L594.5 193L1053 193" stroke="#323232" stroke-width="1.5" fill="none"></path></g><g id="SvgjsG1057" transform="translate(25,214)"><path id="SvgjsPath1058" d="M 0 0L 100 0L 100 40L 0 40Z" stroke="none" fill="none"></path><g id="SvgjsG1059"><text id="SvgjsText1060" font-family="微软雅黑" text-anchor="middle" font-size="13px" width="100px" fill="#323232" font-weight="400" align="middle" lineHeight="125%" anchor="middle" family="微软雅黑" size="13px" weight="400" font-style="" opacity="1" y="9.375" transform="rotate(0)"><tspan id="SvgjsTspan1061" dy="16.25" x="50"><tspan id="SvgjsTspan1062" style="">应用层</tspan></tspan></text></g></g><g id="SvgjsG1063" transform="translate(310,183.625)"><path id="SvgjsPath1064" d="M 0 0L 96 0L 96 54L 0 54Z" stroke="rgba(33,41,48,1)" stroke-width="1.5" fill-opacity="1" fill="#dbf5f5"></path><g id="SvgjsG1065"><text id="SvgjsText1066" font-family="微软雅黑" text-anchor="middle" font-size="13px" width="76px" fill="#323232" font-weight="400" align="middle" lineHeight="125%" anchor="middle" family="微软雅黑" size="13px" weight="400" font-style="" opacity="1" y="16.375" transform="rotate(0)"><tspan id="SvgjsTspan1067" dy="16.25" x="48"><tspan id="SvgjsTspan1068" style="">java</tspan></tspan></text></g></g><g id="SvgjsG1069" transform="translate(454,222)"><path id="SvgjsPath1070" d="M 0 0L 96 0L 96 54L 0 54Z" stroke="rgba(33,41,48,1)" stroke-width="1.5" fill-opacity="1" fill="#ffffff"></path><g id="SvgjsG1071"><text id="SvgjsText1072" font-family="微软雅黑" text-anchor="middle" font-size="13px" width="76px" fill="#323232" font-weight="400" align="middle" lineHeight="125%" anchor="middle" family="微软雅黑" size="13px" weight="400" font-style="" opacity="1" y="16.375" transform="rotate(0)"><tspan id="SvgjsTspan1073" dy="16.25" x="48"><tspan id="SvgjsTspan1074" style="">c#</tspan></tspan></text></g></g><g id="SvgjsG1075" transform="translate(160,78)"><path id="SvgjsPath1076" d="M 0 0L 96 0L 96 54L 0 54Z" stroke="rgba(33,41,48,1)" stroke-width="1.5" fill-opacity="1" fill="#ffffff"></path><g id="SvgjsG1077"><text id="SvgjsText1078" font-family="微软雅黑" text-anchor="middle" font-size="13px" width="76px" fill="#323232" font-weight="400" align="middle" lineHeight="125%" anchor="middle" family="微软雅黑" size="13px" weight="400" font-style="" opacity="1" y="16.375" transform="rotate(0)"><tspan id="SvgjsTspan1079" dy="16.25" x="48"><tspan id="SvgjsTspan1080" style="">python</tspan></tspan></text></g></g><g id="SvgjsG1081" transform="translate(25,116)"><path id="SvgjsPath1082" d="M 0 0L 100 0L 100 40L 0 40Z" stroke="none" fill="none"></path><g id="SvgjsG1083"><text id="SvgjsText1084" font-family="微软雅黑" text-anchor="middle" font-size="13px" width="100px" fill="#323232" font-weight="400" align="middle" lineHeight="125%" anchor="middle" family="微软雅黑" size="13px" weight="400" font-style="" opacity="1" y="9.375" transform="rotate(0)"><tspan id="SvgjsTspan1085" dy="16.25" x="50"><tspan id="SvgjsTspan1086" style="">ui/胶水</tspan></tspan></text></g></g><g id="SvgjsG1087" transform="translate(310,102)"><path id="SvgjsPath1088" d="M 0 0L 96 0L 96 54L 0 54Z" stroke="rgba(33,41,48,1)" stroke-width="1.5" fill-opacity="1" fill="#dbf5f5"></path><g id="SvgjsG1089"><text id="SvgjsText1090" font-family="微软雅黑" text-anchor="middle" font-size="13px" width="76px" fill="#323232" font-weight="400" align="middle" lineHeight="125%" anchor="middle" family="微软雅黑" size="13px" weight="400" font-style="" opacity="1" y="16.375" transform="rotate(0)"><tspan id="SvgjsTspan1091" dy="16.25" x="48"><tspan id="SvgjsTspan1092" style="">js</tspan></tspan></text></g></g><g id="SvgjsG1093" transform="translate(454,143.625)"><path id="SvgjsPath1094" d="M 0 0L 96 0L 96 54L 0 54Z" stroke="rgba(33,41,48,1)" stroke-width="1.5" fill-opacity="1" fill="#ffffff"></path><g id="SvgjsG1095"><text id="SvgjsText1096" font-family="微软雅黑" text-anchor="middle" font-size="13px" width="76px" fill="#323232" font-weight="400" align="middle" lineHeight="125%" anchor="middle" family="微软雅黑" size="13px" weight="400" font-style="" opacity="1" y="16.375" transform="rotate(0)"><tspan id="SvgjsTspan1097" dy="16.25" x="48"><tspan id="SvgjsTspan1098" style="">php</tspan></tspan></text></g></g><g id="SvgjsG1099" transform="translate(608,337)"><path id="SvgjsPath1100" d="M 0 0L 219 0L 235 16L 235 59L 0 59L 0 0Z" stroke="none" fill-opacity="1" fill="#fff7bc"></path><path id="SvgjsPath1101" d="M 219 0L 219 16L 235 16Z" stroke="none" fill-opacity="1" fill="#e4d089"></path><path id="SvgjsPath1102" d="M 0 0L 219 0L 235 16L 235 59L 0 59L 0 0Z" stroke="none" fill="none"></path><g id="SvgjsG1103"><text id="SvgjsText1104" font-family="微软雅黑" text-anchor="middle" font-size="13px" width="215px" fill="#323232" font-weight="400" align="middle" lineHeight="125%" anchor="middle" family="微软雅黑" size="13px" weight="400" font-style="" opacity="1" y="18.875" transform="rotate(0)"><tspan id="SvgjsTspan1105" dy="16.25" x="117.5"><tspan id="SvgjsTspan1106" style="">无gc，小runtime</tspan></tspan></text></g></g><g id="SvgjsG1107" transform="translate(608,211)"><path id="SvgjsPath1108" d="M 0 0L 227 0L 243 16L 243 66L 0 66L 0 0Z" stroke="none" fill-opacity="1" fill="#fff7bc"></path><path id="SvgjsPath1109" d="M 227 0L 227 16L 243 16Z" stroke="none" fill-opacity="1" fill="#e4d089"></path><path id="SvgjsPath1110" d="M 0 0L 227 0L 243 16L 243 66L 0 66L 0 0Z" stroke="none" fill="none"></path><g id="SvgjsG1111"><text id="SvgjsText1112" font-family="微软雅黑" text-anchor="middle" font-size="13px" width="223px" fill="#323232" font-weight="400" align="middle" lineHeight="125%" anchor="middle" family="微软雅黑" size="13px" weight="400" font-style="" opacity="1" y="5.875" transform="rotate(0)"><tspan id="SvgjsTspan1113" dy="16.25" x="121.5"><tspan id="SvgjsTspan1114" style="">强类型，约束编码安全。保证安全的情</tspan></tspan><tspan id="SvgjsTspan1115" dy="16.25" x="121.5"><tspan id="SvgjsTspan1116" style="">况下业务方便高于运行性能。带gc，依</tspan></tspan><tspan id="SvgjsTspan1117" dy="16.25" x="121.5"><tspan id="SvgjsTspan1118" style="">靠runtime来提升执行效率</tspan></tspan></text></g></g><g id="SvgjsG1119" transform="translate(608,106)"><path id="SvgjsPath1120" d="M 0 0L 223 0L 239 16L 239 68.5L 0 68.5L 0 0Z" stroke="none" fill-opacity="1" fill="#fff7bc"></path><path id="SvgjsPath1121" d="M 223 0L 223 16L 239 16Z" stroke="none" fill-opacity="1" fill="#e4d089"></path><path id="SvgjsPath1122" d="M 0 0L 223 0L 239 16L 239 68.5L 0 68.5L 0 0Z" stroke="none" fill="none"></path><g id="SvgjsG1123"><text id="SvgjsText1124" font-family="微软雅黑" text-anchor="middle" font-size="13px" width="219px" fill="#323232" font-weight="400" align="middle" lineHeight="125%" anchor="middle" family="微软雅黑" size="13px" weight="400" font-style="" opacity="1" y="7.125" transform="rotate(0)"><tspan id="SvgjsTspan1125" dy="16.25" x="119.5"><tspan id="SvgjsTspan1126" style="">弱类型，脚本化,语法糖丰富，表达能</tspan></tspan><tspan id="SvgjsTspan1127" dy="16.25" x="119.5"><tspan id="SvgjsTspan1128" style="">力强，允许报错代码直接加载。具备</tspan></tspan><tspan id="SvgjsTspan1129" dy="16.25" x="119.5"><tspan id="SvgjsTspan1130" style="">很多自动纠错能力</tspan></tspan></text></g></g><g id="SvgjsG1131" transform="translate(895,108.875)"><path id="SvgjsPath1132" d="M 0 0L 152 0L 152 81.25L 0 81.25Z" stroke="none" fill="none"></path><g id="SvgjsG1133"><text id="SvgjsText1134" font-family="微软雅黑" text-anchor="middle" font-size="13px" width="152px" fill="#323232" font-weight="400" align="middle" lineHeight="125%" anchor="middle" family="微软雅黑" size="13px" weight="400" font-style="" opacity="1" y="13.5" transform="rotate(0)"><tspan id="SvgjsTspan1135" dy="16.25" x="76"><tspan id="SvgjsTspan1136" style="">编程难度极低，其他行业</tspan></tspan><tspan id="SvgjsTspan1137" dy="16.25" x="76"><tspan id="SvgjsTspan1138" style="">同学可以在没有系统学习</tspan></tspan><tspan id="SvgjsTspan1139" dy="16.25" x="76"><tspan id="SvgjsTspan1140" style="">的情况下直接上手</tspan></tspan></text></g></g><g id="SvgjsG1141" transform="translate(895,218)"><path id="SvgjsPath1142" d="M 0 0L 152 0L 152 65L 0 65Z" stroke="none" fill="none"></path><g id="SvgjsG1143"><text id="SvgjsText1144" font-family="微软雅黑" text-anchor="middle" font-size="13px" width="152px" fill="#323232" font-weight="400" align="middle" lineHeight="125%" anchor="middle" family="微软雅黑" size="13px" weight="400" font-style="" opacity="1" y="-2.625" transform="rotate(0)"><tspan id="SvgjsTspan1145" dy="16.25" x="76"><tspan id="SvgjsTspan1146" style="">编程难度较高，大多数情</tspan></tspan><tspan id="SvgjsTspan1147" dy="16.25" x="76"><tspan id="SvgjsTspan1148" style="">况开发同学关注在业务设</tspan></tspan><tspan id="SvgjsTspan1149" dy="16.25" x="76"><tspan id="SvgjsTspan1150" style="">计上面，不需要过多考虑</tspan></tspan><tspan id="SvgjsTspan1151" dy="16.25" x="76"><tspan id="SvgjsTspan1152" style="">计算机底层</tspan></tspan></text></g></g><g id="SvgjsG1153" transform="translate(895,341)"><path id="SvgjsPath1154" d="M 0 0L 152 0L 152 65L 0 65Z" stroke="none" fill="none"></path><g id="SvgjsG1155"><text id="SvgjsText1156" font-family="微软雅黑" text-anchor="middle" font-size="13px" width="152px" fill="#323232" font-weight="400" align="middle" lineHeight="125%" anchor="middle" family="微软雅黑" size="13px" weight="400" font-style="" opacity="1" y="-2.625" transform="rotate(0)"><tspan id="SvgjsTspan1157" dy="16.25" x="76"><tspan id="SvgjsTspan1158" style="">编程难度极高，需要非常</tspan></tspan><tspan id="SvgjsTspan1159" dy="16.25" x="76"><tspan id="SvgjsTspan1160" style="">了解计算机底层，受语言</tspan></tspan><tspan id="SvgjsTspan1161" dy="16.25" x="76"><tspan id="SvgjsTspan1162" style="">限制，实现功能无法随心</tspan></tspan><tspan id="SvgjsTspan1163" dy="16.25" x="76"><tspan id="SvgjsTspan1164" style="">所欲</tspan></tspan></text></g></g><g id="SvgjsG1165" transform="translate(904,468)"><path id="SvgjsPath1166" d="M 0 0L 152 0L 152 40L 0 40Z" stroke="none" fill="none"></path><g id="SvgjsG1167"><text id="SvgjsText1168" font-family="微软雅黑" text-anchor="middle" font-size="13px" width="152px" fill="#323232" font-weight="400" align="middle" lineHeight="125%" anchor="middle" family="微软雅黑" size="13px" weight="400" font-style="" opacity="1" y="9.375" transform="rotate(0)"><tspan id="SvgjsTspan1169" dy="16.25" x="76"><tspan id="SvgjsTspan1170" style="">没有人能用它来写大业务</tspan></tspan></text></g></g><g id="SvgjsG1171" transform="translate(310,25)"><path id="SvgjsPath1172" d="M 0 0L 100 0L 100 40L 0 40Z" stroke="none" fill="none"></path><g id="SvgjsG1173"><text id="SvgjsText1174" font-family="微软雅黑" text-anchor="middle" font-size="13px" width="100px" fill="#323232" font-weight="400" align="middle" lineHeight="125%" anchor="middle" family="微软雅黑" size="13px" weight="400" font-style="" opacity="1" y="9.375" transform="rotate(0)"><tspan id="SvgjsTspan1175" dy="16.25" x="50"><tspan id="SvgjsTspan1176" style="">语言</tspan></tspan></text></g></g><g id="SvgjsG1177" transform="translate(667,32)"><path id="SvgjsPath1178" d="M 0 0L 100 0L 100 40L 0 40Z" stroke="none" fill="none"></path><g id="SvgjsG1179"><text id="SvgjsText1180" font-family="微软雅黑" text-anchor="middle" font-size="13px" width="100px" fill="#323232" font-weight="400" align="middle" lineHeight="125%" anchor="middle" family="微软雅黑" size="13px" weight="400" font-style="" opacity="1" y="9.375" transform="rotate(0)"><tspan id="SvgjsTspan1181" dy="16.25" x="50"><tspan id="SvgjsTspan1182" style="">特点</tspan></tspan></text></g></g><g id="SvgjsG1183" transform="translate(924,32)"><path id="SvgjsPath1184" d="M 0 0L 100 0L 100 40L 0 40Z" stroke="none" fill="none"></path><g id="SvgjsG1185"><text id="SvgjsText1186" font-family="微软雅黑" text-anchor="middle" font-size="13px" width="100px" fill="#323232" font-weight="400" align="middle" lineHeight="125%" anchor="middle" family="微软雅黑" size="13px" weight="400" font-style="" opacity="1" y="9.375" transform="rotate(0)"><tspan id="SvgjsTspan1187" dy="16.25" x="50"><tspan id="SvgjsTspan1188" style="">难度</tspan></tspan></text></g></g><g id="SvgjsG1189" transform="translate(454,325.5)"><path id="SvgjsPath1190" d="M 0 0L 96 0L 96 54L 0 54Z" stroke="rgba(33,41,48,1)" stroke-width="1.5" fill-opacity="1" fill="#ffffff"></path><g id="SvgjsG1191"><text id="SvgjsText1192" font-family="微软雅黑" text-anchor="middle" font-size="13px" width="76px" fill="#323232" font-weight="400" align="middle" lineHeight="125%" anchor="middle" family="微软雅黑" size="13px" weight="400" font-style="" opacity="1" y="16.375" transform="rotate(0)"><tspan id="SvgjsTspan1193" dy="16.25" x="48"><tspan id="SvgjsTspan1194" style="">c++</tspan></tspan></text></g></g></svg>